<svg xmlns="http://www.w3.org/2000/svg" viewBox="0 0 60.08 28.69"><defs><style>.cls-1{fill:#0065fc;}</style></defs><g id="Calque_2" data-name="Calque 2"><g id="Calque_1-2" data-name="Calque 1"><path class="cls-1" d="M2.67,8.4a4.79,4.79,0,0,1-1-.42,6.28,6.28,0,0,1-.91-.7,3.17,3.17,0,0,1-.6-.92A1.7,1.7,0,0,1,0,5.31,3.92,3.92,0,0,1,1.37,3.13a8.08,8.08,0,0,1,3-1.62v-.1a1.24,1.24,0,0,1,.5-.78A2.49,2.49,0,0,1,6.08.07a1.64,1.64,0,0,1,1,0c.21.09.32.22.32.39a.45.45,0,0,1,0,.17V1a20.1,20.1,0,0,1,3.83.1,11.56,11.56,0,0,1,4.12,1.2,7.09,7.09,0,0,1,2.39,2,5.17,5.17,0,0,1,1,2.35,6.07,6.07,0,0,1,0,2.25,6.72,6.72,0,0,1-.77,2.18,8.7,8.7,0,0,1-1.34,1.73,9.71,9.71,0,0,1-1.72,1.3,12.65,12.65,0,0,1-2,1,4.91,4.91,0,0,1,1.9.81A4.6,4.6,0,0,1,16,17.12a5.08,5.08,0,0,1,.7,1.65,6.15,6.15,0,0,1,.14,1.87,6.39,6.39,0,0,1-.77,2.77,7.2,7.2,0,0,1-1.83,2.22,8.78,8.78,0,0,1-2.78,1.48A9.86,9.86,0,0,1,8,27.56H7.52a3.23,3.23,0,0,1-1.16.67,6.1,6.1,0,0,1-1.16.35,4.48,4.48,0,0,1-1.26.11v-.53a4,4,0,0,0,0-.49,3.43,3.43,0,0,1,0-.56,4.4,4.4,0,0,1-.81-.22l-.74-.24a3.6,3.6,0,0,1-.63-.25,1.29,1.29,0,0,1-.21-.52,5,5,0,0,1-.11-.64,2.56,2.56,0,0,1,.14-.74,11.26,11.26,0,0,0,2.5.64c0-1.2.08-2.62.1-4.26s.07-3.36.07-5.17v-6c0-2,0-3.65,0-5.06A3.87,3.87,0,0,0,2.78,6.08,2.7,2.7,0,0,0,2.67,8.4ZM13.5,20.81A3.81,3.81,0,0,0,13,18.35,3.62,3.62,0,0,0,11.46,17a5.61,5.61,0,0,0-2.11-.6,12.93,12.93,0,0,0-2,0c.05,2,.08,3.72.11,5.31s0,2.86.07,3.87a7.1,7.1,0,0,0,2.11-.25,5.55,5.55,0,0,0,1.83-.88,5.3,5.3,0,0,0,1.4-1.47A4.65,4.65,0,0,0,13.5,20.81Zm-6.26-17c0,1.2-.07,2.62-.07,4.26s0,3.46.07,5.48v.56a3.32,3.32,0,0,0,0,.53,10,10,0,0,0,5.13-2,7.55,7.55,0,0,0,1.9-2,4.62,4.62,0,0,0,.74-2.53,3.15,3.15,0,0,0-.57-1.86A4.56,4.56,0,0,0,13,4.92a7.24,7.24,0,0,0-2.14-.84,10.76,10.76,0,0,0-2.5-.28H7.77Zm22,14.84a8.48,8.48,0,0,1-.49,2.53,6.65,6.65,0,0,1-1.09,2A5.16,5.16,0,0,1,26,24.57a4.81,4.81,0,0,1-2.11.53,3.53,3.53,0,0,1-1.94-.49,5,5,0,0,1-1.54-1.48,6.84,6.84,0,0,1-1-2.25A8.78,8.78,0,0,1,19.16,18a8.69,8.69,0,0,1,.67-3.06A10.26,10.26,0,0,1,21,12.8a5.84,5.84,0,0,1,1.16-1.23,8.46,8.46,0,0,1,.71-.5.59.59,0,0,1,.45,0c.14,0,.3.06.46.1a.47.47,0,0,1,.14.18,2.25,2.25,0,0,1,.18.91,1.82,1.82,0,0,1,1-1,3,3,0,0,1,.7-.18,1.55,1.55,0,0,1,.84.39,4.21,4.21,0,0,1,1.2,1.34,8.66,8.66,0,0,1,1,2.39A10.34,10.34,0,0,1,29.21,18.67Zm-2.39-.42a9.52,9.52,0,0,0-.07-1.69A7.19,7.19,0,0,0,26.47,15,3.55,3.55,0,0,0,26,13.82c-.19-.31-.38-.46-.57-.46a2.23,2.23,0,0,0-.7.32,3.44,3.44,0,0,0-.7.66,5,5,0,0,0-.74,1.3,2.17,2.17,0,0,1-.07-.38c0-.17,0-.38-.07-.63a10.87,10.87,0,0,1,.07-1.13,4.58,4.58,0,0,0-.78,1.41,15,15,0,0,0-.38,1.54c-.1.59-.17,1.18-.21,1.76a11.49,11.49,0,0,0,.07,1.86,7.08,7.08,0,0,0,.42,1.62,3.75,3.75,0,0,0,.74,1.13,1.25,1.25,0,0,0,1,.38,1.52,1.52,0,0,0,1.05-.49A4.12,4.12,0,0,0,26,21.55,7.72,7.72,0,0,0,26.54,20,10.8,10.8,0,0,0,26.82,18.25Zm14,.42a8.49,8.49,0,0,1-.5,2.53,6.44,6.44,0,0,1-1.09,2,5.06,5.06,0,0,1-1.68,1.33,4.81,4.81,0,0,1-2.11.53,3.53,3.53,0,0,1-1.94-.49A5,5,0,0,1,32,23.13a6.84,6.84,0,0,1-1-2.25A9.06,9.06,0,0,1,30.76,18a8.69,8.69,0,0,1,.67-3.06,9.82,9.82,0,0,1,1.2-2.14,5.37,5.37,0,0,1,1.16-1.23,7.39,7.39,0,0,1,.7-.5A.62.62,0,0,1,35,11c.14,0,.29.06.45.1a.39.39,0,0,1,.14.18,2.09,2.09,0,0,1,.18.91,2,2,0,0,1,.46-.63,1.79,1.79,0,0,1,.56-.35,3,3,0,0,1,.7-.18,1.57,1.57,0,0,1,.85.39,4.19,4.19,0,0,1,1.19,1.34,8.66,8.66,0,0,1,1,2.39A10.58,10.58,0,0,1,40.82,18.67Zm-2.39-.42a10.57,10.57,0,0,0-.07-1.69A7.81,7.81,0,0,0,38.07,15a3.55,3.55,0,0,0-.45-1.16c-.19-.31-.38-.46-.57-.46a2.23,2.23,0,0,0-.7.32,3.72,3.72,0,0,0-.7.66,5,5,0,0,0-.74,1.3,2.17,2.17,0,0,1-.07-.38c0-.17-.05-.38-.07-.63a10.87,10.87,0,0,1,.07-1.13,4.36,4.36,0,0,0-.77,1.41,12.89,12.89,0,0,0-.39,1.54c-.09.59-.16,1.18-.21,1.76a12.75,12.75,0,0,0,.07,1.86A7.08,7.08,0,0,0,34,21.69a3.75,3.75,0,0,0,.74,1.13,1.25,1.25,0,0,0,1,.38,1.52,1.52,0,0,0,1.05-.49,4.12,4.12,0,0,0,.81-1.16A7.17,7.17,0,0,0,38.14,20,10.85,10.85,0,0,0,38.43,18.25Zm11.39-1.94a4.21,4.21,0,0,1,1.4,1,3.44,3.44,0,0,1,.85,2,16.4,16.4,0,0,0,.38,2.15,6.76,6.76,0,0,0,.71,1.72,5.13,5.13,0,0,0,1.19,1.33,7.54,7.54,0,0,0,2,1,2.54,2.54,0,0,1-.77.46,4.59,4.59,0,0,1-.81.24,3,3,0,0,1-1,.14,3.21,3.21,0,0,1-1.9-.31,2.82,2.82,0,0,1-1.16-1.16,6.58,6.58,0,0,1-.63-1.8A19.8,19.8,0,0,1,49.78,21c0-.3-.06-.62-.1-.95a4.35,4.35,0,0,0-.25-.94,3.14,3.14,0,0,0-.49-.85,1.89,1.89,0,0,0-.74-.6c-.52.4-1,.75-1.44,1.06s-.8.51-1.13.7c0,1.27.08,2.31.18,3.13a4.43,4.43,0,0,0,.46,1.65,4.65,4.65,0,0,1-.5.32l-.42.17a1.76,1.76,0,0,1-.46.15,1.69,1.69,0,0,1-1.26-.07c-.35-.17-.54-.63-.56-1.38L42.86,2.88c0-.18.17-.37.52-.56a5.54,5.54,0,0,1,1.23-.49,4.72,4.72,0,0,1,1.2-.18c.37,0,.55.11.53.32-.07,1.62-.14,3.14-.21,4.57S46,9.23,46,10.34q-.11,1.94-.18,3.51c0,.63-.08,1.24-.1,1.83s0,1.15,0,1.69c.45-.35.92-.74,1.41-1.16a13.4,13.4,0,0,0,1.41-1.41,8.57,8.57,0,0,0,1.12-1.65,5.06,5.06,0,0,0,.53-1.94,5.12,5.12,0,0,1,.77-.45,5.9,5.9,0,0,1,.74-.32,2.17,2.17,0,0,1,.7-.14c.54,0,.86.09.95.35a1.56,1.56,0,0,1,0,.85,5,5,0,0,1-.53,1.3,11.89,11.89,0,0,1-1.09,1.65A16,16,0,0,1,49.82,16.31Zm5.83-4c0-.14.19-.29.56-.46a6.42,6.42,0,0,1,1.24-.38,5.09,5.09,0,0,1,1.26-.18c.4,0,.6.06.6.25,0,.35,0,.85-.07,1.51s-.11,1.31-.18,2-.14,1.41-.21,2.14-.12,1.3-.14,1.79-.09,1.08-.14,1.69-.08,1.09-.11,1.72,0,1.28,0,1.94c0,.12-.11.23-.35.35a2.68,2.68,0,0,1-.77.25,3.32,3.32,0,0,1-.81.1c-.26,0-.4-.05-.42-.14A2.17,2.17,0,0,1,56,24.4c0-.24-.09-.56-.14-1s-.08-1-.11-1.68,0-1.55,0-2.53a42.88,42.88,0,0,0,0-4.5C55.72,13.62,55.68,12.81,55.65,12.27Zm2.46-7a2.32,2.32,0,0,1,1.34.43,1.28,1.28,0,0,1,.63,1.12,2,2,0,0,1-.28,1,3.31,3.31,0,0,1-1.51,1.51,2.34,2.34,0,0,1-.91.21,2.19,2.19,0,0,1-.92-.17,2.42,2.42,0,0,1-.56-.46,2,2,0,0,1-.25-.6,3.26,3.26,0,0,1-.07-.6A3.24,3.24,0,0,1,55.69,7a2.16,2.16,0,0,1,.38-.81,2.05,2.05,0,0,1,.78-.63A2.88,2.88,0,0,1,58.11,5.27Zm-.88,3.27a.85.85,0,0,0,.46-.14A2.37,2.37,0,0,0,58.18,8a1.65,1.65,0,0,0,.39-.46.8.8,0,0,0,.18-.42c0-.19-.1-.28-.29-.28A1,1,0,0,0,58,7a2.61,2.61,0,0,0-.49.35,1.72,1.72,0,0,0-.43.42.78.78,0,0,0-.14.42C57,8.43,57.05,8.54,57.23,8.54Z"/></g></g></svg>