<svg xmlns="http://www.w3.org/2000/svg" viewBox="0 0 18.74 28.69"><defs><style>.cls-1{fill:#0065fc;}</style></defs><g id="Calque_2" data-name="Calque 2"><g id="Calque_1-2" data-name="Calque 1"><path class="cls-1" d="M2.67,8.4a4.79,4.79,0,0,1-1-.42,6.28,6.28,0,0,1-.91-.7,3.17,3.17,0,0,1-.6-.92A1.7,1.7,0,0,1,0,5.31,3.92,3.92,0,0,1,1.37,3.13a8.08,8.08,0,0,1,3-1.62v-.1a1.24,1.24,0,0,1,.5-.78A2.49,2.49,0,0,1,6.08.07a1.64,1.64,0,0,1,1,0c.21.09.32.22.32.39a.45.45,0,0,1,0,.17V1a20.1,20.1,0,0,1,3.83.1,11.56,11.56,0,0,1,4.12,1.2,7.09,7.09,0,0,1,2.39,2,5.17,5.17,0,0,1,1,2.35,6.07,6.07,0,0,1,0,2.25,6.72,6.72,0,0,1-.77,2.18,8.7,8.7,0,0,1-1.34,1.73,9.71,9.71,0,0,1-1.72,1.3,12.65,12.65,0,0,1-2,1,4.91,4.91,0,0,1,1.9.81A4.6,4.6,0,0,1,16,17.12a5.08,5.08,0,0,1,.7,1.65,6.15,6.15,0,0,1,.14,1.87,6.39,6.39,0,0,1-.77,2.77,7.2,7.2,0,0,1-1.83,2.22,8.78,8.78,0,0,1-2.78,1.48A9.86,9.86,0,0,1,8,27.56H7.52a3.23,3.23,0,0,1-1.16.67,6.1,6.1,0,0,1-1.16.35,4.48,4.48,0,0,1-1.26.11v-.53a4,4,0,0,0,0-.49,3.43,3.43,0,0,1,0-.56,4.4,4.4,0,0,1-.81-.22l-.74-.24a3.6,3.6,0,0,1-.63-.25,1.29,1.29,0,0,1-.21-.52,5,5,0,0,1-.11-.64,2.56,2.56,0,0,1,.14-.74,11.26,11.26,0,0,0,2.5.64c0-1.2.08-2.62.1-4.26s.07-3.36.07-5.17v-6c0-2,0-3.65,0-5.06A3.87,3.87,0,0,0,2.78,6.08,2.7,2.7,0,0,0,2.67,8.4ZM13.5,20.81A3.81,3.81,0,0,0,13,18.35,3.62,3.62,0,0,0,11.46,17a5.61,5.61,0,0,0-2.11-.6,12.93,12.93,0,0,0-2,0c.05,2,.08,3.72.11,5.31s0,2.86.07,3.87a7.1,7.1,0,0,0,2.11-.25,5.55,5.55,0,0,0,1.83-.88,5.3,5.3,0,0,0,1.4-1.47A4.65,4.65,0,0,0,13.5,20.81Zm-6.26-17c0,1.2-.07,2.62-.07,4.26s0,3.46.07,5.48v.56a3.32,3.32,0,0,0,0,.53,10,10,0,0,0,5.13-2,7.55,7.55,0,0,0,1.9-2,4.62,4.62,0,0,0,.74-2.53,3.15,3.15,0,0,0-.57-1.86A4.56,4.56,0,0,0,13,4.92a7.24,7.24,0,0,0-2.14-.84,10.76,10.76,0,0,0-2.5-.28H7.77Z"/></g></g></svg>